<svg width="330" height="457" viewBox="0 0 330 457" fill="none" xmlns="http://www.w3.org/2000/svg">
<g clip-path="url(#clip0_943_576)">
<path d="M323.112 426.519C323.174 441.392 313.09 453.943 298.567 456.461C286.418 458.565 276.241 454.533 268.264 445.216C258.668 434.013 257.91 417.637 266.583 405.947C273.046 397.241 281.906 393.324 292.767 394.101C304.189 394.92 312.769 400.392 318.672 410.092C321.732 415.119 323.091 420.508 323.112 426.519ZM305.631 412.31C302.561 411.657 299.469 410.994 296.544 410.372C292.799 414.269 289.271 417.938 285.755 421.597C286.553 423.918 287.28 426.053 288.016 428.188C288.462 428.043 288.867 427.742 289.116 427.846C293.162 429.473 297.187 431.142 301.347 432.862C303.556 430.427 305.745 428.012 307.623 425.939C306.949 421.275 306.326 417.057 305.631 412.31ZM290.132 400.609C291.927 403.283 293.628 405.75 295.268 408.268C295.807 409.087 296.419 409.481 297.425 409.657C300.112 410.124 302.747 410.808 305.413 411.367C306.192 411.533 307.042 411.823 307.779 411.678C309.366 411.357 310.901 410.787 312.623 410.269C312.561 409.129 312.551 408.051 312.447 406.983C312.364 406.082 312.271 405.159 311.991 404.309C311.804 403.75 311.368 403.2 310.901 402.807C301.482 394.743 289.219 392.619 277.808 398.257C276.324 398.993 274.706 399.677 273.627 401.19C274.717 402.081 275.692 402.879 276.615 403.636C279.032 402.983 281.294 402.268 283.607 401.791C286.771 401.128 289.697 400.06 292.238 397.987C293.089 397.293 294.189 396.909 295.174 396.381C295.278 396.557 295.382 396.744 295.485 396.92C293.815 398.07 292.114 399.252 290.132 400.609ZM267.506 424.654C269.052 428.178 270.38 431.256 271.77 434.303C272.092 435.007 272.507 435.961 273.098 436.179C275.453 437.039 277.901 437.661 280.09 438.303C282.767 434.945 285.184 431.909 287.477 429.038C286.699 427.027 285.962 425.276 285.36 423.472C285.028 422.467 284.562 421.742 283.566 421.244C280.412 419.669 277.3 418 273.897 416.228C271.739 419.078 269.55 421.959 267.506 424.654ZM300.724 445.009C304.635 445.848 307.955 448.025 312.167 446.605C315.341 445.537 316.794 444.387 316.732 441.081C316.711 440.086 316.804 439.081 316.773 438.086C316.659 434.655 316.503 431.225 316.358 427.68C313.692 427.141 311.316 426.654 309.024 426.188C307.001 428.385 305.061 430.447 303.183 432.551C302.727 433.069 302.239 433.722 302.146 434.375C301.627 437.775 301.222 441.195 300.724 445.009ZM288.338 448.771C286.18 446.056 284.167 443.485 282.082 440.956C281.584 440.355 280.931 439.713 280.225 439.464C277.403 438.5 274.53 437.692 271.739 436.842C269.934 438.003 268.222 439.122 266.376 440.314C270.971 447.61 277.206 452.284 285.225 454.492C286.325 452.481 287.269 450.74 288.338 448.771ZM266.137 424.778C267.89 422.332 269.301 419.855 271.22 417.845C272.953 416.021 273.824 414.052 274.187 411.668C274.571 409.098 275.111 406.548 275.557 404.144C274.364 403.19 273.461 402.465 272.6 401.781C265.888 406.828 261.189 416.725 262.351 423.462C263.616 423.908 264.954 424.364 266.137 424.778ZM308.878 448.636C306.337 447.724 303.805 446.781 301.243 445.91C300.859 445.776 300.341 445.848 299.936 445.973C296.907 446.916 293.888 447.869 290.89 448.906C290.184 449.154 289.417 449.61 288.991 450.201C288.006 451.569 287.207 453.072 286.304 454.575C286.647 454.761 286.865 454.958 287.103 455.01C294.043 456.326 300.641 455.404 306.928 452.077C308.422 451.289 309.096 450.305 308.878 448.636ZM317.645 440.708C324.989 430.396 322.116 413.15 312.883 405.263C313.267 407.242 313.246 408.984 313.972 410.31C314.906 412.031 316.317 413.544 317.748 414.912C319.989 417.047 320.28 419.379 319.107 422.094C317.655 425.452 316.742 428.862 317.562 432.593C317.852 433.899 317.645 435.318 317.645 436.686C317.645 438.023 317.645 439.371 317.645 440.708Z" fill="#CCCCCC"/>
<path d="M330 165.606C329.544 172.664 311.42 201.973 306.347 203.943C311.306 197.942 315.269 191.692 319.273 185.474C323.247 179.297 326.992 172.975 330 165.606Z" fill="#CCCCCC"/>
<path d="M319.336 149.749C320.84 156.652 311.514 189.827 307.177 193.123C310.289 185.992 312.375 178.893 314.501 171.814C316.618 164.767 318.475 157.667 319.336 149.749Z" fill="#CCCCCC"/>
<path d="M12.4697 52.4832C21.018 76.5898 30.3235 100.064 44.5879 121.404C43.9655 120.761 43.3119 120.15 42.7413 119.455C38.7473 114.657 35.604 109.319 32.6992 103.826C25.7797 90.7574 19.8665 77.2324 14.9803 63.2721C14.14 60.8676 13.5175 58.3906 12.8951 55.9136C12.615 54.8151 12.6046 53.6336 12.4697 52.4832Z" fill="#CCCCCC"/>
<path d="M106.739 385.634C107.662 386.691 108.586 387.748 109.509 388.795C114.665 394.64 120.609 399.594 126.875 404.185C135.714 410.663 144.895 416.611 154.958 421.027C158.236 422.467 161.784 423.286 165.228 424.405C163.766 424.923 162.22 424.581 160.705 424.239C155.57 423.089 150.985 420.612 146.441 418.104C136.772 412.746 127.539 406.704 119.219 399.397C115.391 396.039 111.937 392.256 108.358 388.629C107.569 387.831 106.988 386.846 106.303 385.944C106.449 385.841 106.594 385.737 106.739 385.634Z" fill="#CCCCCC"/>
<path d="M147.043 408.476C145.559 409.274 144.822 408.538 144.169 408.061C142.032 406.507 139.905 404.931 137.903 403.211C131.419 397.666 125.662 391.479 121.367 384.048C120.703 382.908 120.163 381.695 119.811 380.379C123.213 386.027 127.29 391.095 131.907 395.749C136.492 400.381 141.441 404.589 147.043 408.476Z" fill="#CCCCCC"/>
<path d="M26.8171 67.1482C31.6514 79.9892 36.4339 92.8509 43.2704 104.811C38.0315 99.1625 26.205 72.1022 26.8171 67.1482Z" fill="#CCCCCC"/>
<path d="M13.7664 8.62295C13.9531 6.7367 14.005 5.20283 14.2851 3.71042C14.451 2.83984 14.8349 1.93818 15.3743 1.24379C15.8308 0.653041 16.6504 -0.0102539 17.3039 -0.0102539C18.3932 0.00011008 18.5903 1.11942 18.6629 2.05218C18.9223 5.38938 20.1983 8.38458 21.5366 11.4005C22.325 13.1831 22.5221 15.2352 22.9682 17.1732C23.0304 17.4323 22.9059 17.7536 22.9993 17.9816C23.9848 20.3964 25.0015 22.8112 26.0285 25.2468C26.4228 25.081 26.734 25.0291 26.9103 24.8529C29.0163 22.6454 31.0496 23.6715 32.7406 25.6095C33.28 26.221 33.8506 26.8843 34.1203 27.6305C35.0644 30.1904 36.8902 31.8175 39.2763 32.9576C42.9798 34.7091 46.5589 36.7819 50.3765 38.1914C55.8126 40.1916 61.0411 42.4303 65.6576 45.9955C69.8487 49.229 74.7349 51.0324 79.7767 52.4315C84.2895 53.6856 88.5532 55.4993 92.5887 57.8726C93.7091 58.5359 94.788 58.8468 96.1885 58.6085C100.234 57.9348 104.011 59.0645 107.496 61.0025C109.177 61.9353 110.65 62.2048 112.6 61.8109C118.555 60.5983 124.593 61.1373 130.61 61.4793C134.614 61.6969 138.619 61.8627 142.55 62.0493C145.092 58.7535 147.457 55.6444 149.885 52.5766C155.134 45.9437 161.846 41.2902 169.865 38.7614C175.291 37.0514 180.022 34.3567 184.368 30.7915C188.746 27.2056 193.819 25.3504 199.452 24.998C200.542 24.9255 201.641 24.77 202.731 24.77C205.708 24.7493 208.467 23.8995 211.206 22.7802C215.553 21.0079 220.055 20.4793 224.599 21.8681C228.168 22.9563 231.27 24.8529 233.199 28.2109C233.697 29.0711 234.34 29.4546 235.326 29.6826C247.464 32.5119 255.026 40.9793 256.78 53.3332C257.423 57.8415 258.201 62.3499 259.342 66.7442C261.313 74.3721 260.556 81.7512 258.014 89.0578C257.143 91.5556 256.219 94.0326 255.192 96.4681C252.256 103.443 250.846 110.739 250.14 118.232C249.974 120.046 249.777 121.881 249.321 123.642C248.854 125.467 249.175 126.969 250.109 128.555C254.3 135.717 258.429 142.909 262.527 150.133C264.187 153.066 265.815 156.04 267.226 159.098C269.228 163.471 272.061 167.264 275.183 170.83C279.955 176.281 284.084 182.147 287.591 188.48C289.178 191.35 290.931 194.138 292.664 196.926C296.917 203.766 300.185 211.083 303.245 218.514C303.588 219.333 304.2 220.059 304.739 220.784C307.177 224.069 307.27 227.51 305.465 231.086C304.355 233.283 303.224 235.47 302.063 237.636C301.814 238.092 301.388 238.455 301.004 238.828C300.455 239.367 299.905 239.906 299.303 240.382C298.836 240.745 298.193 241.357 297.819 241.243C297.228 241.056 296.398 240.382 296.367 239.875C296.274 238.486 295.786 237.398 295.05 236.237C294.604 235.532 294.967 234.299 295.008 233.304C295.05 232.444 295.34 231.708 294.728 230.744C294.24 229.977 294.396 228.567 294.707 227.593C295.392 225.448 294.655 223.779 293.141 222.494C289.385 219.312 285.692 216.006 281.636 213.239C275.64 209.156 270.619 204.409 267.112 197.932C264.871 193.786 261.811 190.096 259.072 186.22C255.96 181.826 252.775 177.494 249.704 173.079C248.885 171.897 248.169 170.55 247.785 169.171C246.665 165.15 244.31 161.865 241.395 159.129C237.401 155.387 234.486 150.9 231.488 146.433C230.533 145.003 229.444 143.645 228.355 142.308C225.834 139.199 223.271 136.131 220.719 133.032C220.626 133.094 220.398 133.157 220.377 133.271C219.516 136.525 218.561 139.769 217.877 143.065C217.462 145.096 217.41 147.221 217.316 149.314C217.202 151.864 217.099 154.341 216.227 156.838C215.594 158.673 215.771 160.797 215.626 162.798C215.439 165.254 215.262 167.7 215.138 170.156C215.076 171.338 215.034 172.54 215.2 173.711C215.709 177.297 216.445 180.862 216.87 184.458C217.14 186.759 217.628 189.07 216.642 191.433C216.238 192.387 216.642 193.786 216.953 194.905C217.534 197.061 217.7 199.175 217.389 201.393C216.86 205.186 218.447 208.575 219.9 211.892C221.611 215.768 222.96 219.675 223.095 223.955C223.116 224.629 223.406 225.375 223.8 225.945C226.549 230.008 227.255 234.537 226.798 239.273C226.415 243.347 226.778 247.254 228.178 251.12C229.267 254.135 229.081 254.395 226.197 256.094C225.211 263.38 224.226 270.687 223.23 278.004C222.452 283.714 221.445 289.373 218.831 294.576C216.144 299.913 214.827 305.479 215.055 311.459C215.211 315.366 213.903 318.786 210.885 321.481C209.391 322.818 207.938 324.217 206.631 325.74C205.967 326.518 205.469 327.575 205.283 328.58C205.013 330.093 204.857 331.7 205.065 333.202C205.355 335.368 204.639 337.161 203.602 338.902C200.137 344.696 196.62 350.448 193.166 356.252C192.823 356.822 192.574 357.578 192.616 358.231C193.134 365.217 193.881 372.202 194.245 379.198C194.753 388.95 194.981 398.703 195.344 408.466C195.355 408.704 195.417 408.942 195.541 409.699C195.935 408.393 196.153 407.533 196.454 406.714C197.16 404.838 198.581 403.968 200.49 404.154C202.139 404.32 202.731 405.035 202.471 406.714C202.357 407.429 202.025 408.103 201.849 408.808C201.631 409.657 201.475 410.518 201.268 411.544C203.529 410.735 205.449 409.875 207.451 409.367C211.237 408.403 213.561 409.564 214.588 413.337C216.673 421.058 215.366 428.126 209.733 434.116C209.173 434.718 208.55 435.267 207.897 435.764C206.164 437.091 205.117 438.811 204.484 440.905C203.768 443.257 202.907 445.569 201.963 447.838C200.718 450.834 198.602 452.865 195.168 452.906C191.516 452.948 188.404 451.984 186.464 448.419C184.555 444.895 183.507 441.382 183.528 437.246C183.549 433.111 182.48 428.976 181.827 424.841C181.598 423.421 181.173 422.022 180.82 420.498C179.876 420.892 178.808 421.804 177.957 420.56C176.93 419.058 178.248 418.073 179.161 416.954C178.268 415.803 177.428 414.736 176.494 413.523C176.09 413.658 175.696 413.886 175.291 413.917C173.828 414.031 172.781 412.85 173.569 411.772C174.741 410.186 174.243 408.725 174.015 407.129C173.859 406.061 173.984 404.963 173.984 404.03C172.604 402.921 170.28 403.107 170.592 400.724C170.83 398.931 172.428 399.345 173.87 399.179C172.677 394.143 169.098 391.406 165.581 388.442C164.222 389.168 163.101 390.836 161.462 389.334C160.321 388.287 160.819 387.209 161.545 386.162C160.705 385.064 159.948 384.069 159.232 383.146C158.9 383.198 158.703 383.177 158.558 383.25C157.52 383.81 156.462 384.649 155.404 383.364C154.512 382.286 154.429 380.12 155.518 379.343C156.908 378.358 156.939 377.197 156.836 375.798C156.69 373.829 157.686 372.233 158.962 370.917C160.404 369.424 162.054 368.129 163.672 366.709C163.423 364.118 162.977 361.341 162.925 358.563C162.873 355.661 163.122 352.738 163.361 349.836C163.931 342.934 164.647 336.052 165.156 329.15C165.27 327.544 165.01 325.854 164.595 324.289C163.309 319.356 161.888 314.454 160.477 309.541C159.097 304.764 156.929 300.348 153.941 296.379C150.103 291.311 147.312 285.683 144.926 279.848C142.55 274.034 140.424 268.116 138.173 262.25C137.986 261.774 137.654 260.955 137.394 260.965C135.423 260.986 135.517 259.535 135.434 258.312C135.206 255.234 134.791 252.125 134.967 249.057C135.278 243.502 134.666 238.154 132.716 232.931C131.201 228.878 130.382 224.691 130.527 220.338C130.548 219.717 130.423 219.095 130.361 218.349C129.427 218.089 128.566 217.851 127.705 217.613C124.831 216.804 124.489 215.965 125.672 213.301C126.564 211.311 127.332 209.259 128.068 207.207C128.4 206.275 128.504 205.248 128.753 204.285C129.728 200.502 130.413 196.595 131.782 192.957C134.324 186.179 134.925 179.359 133.722 172.26C132.799 166.829 133.1 161.347 133.535 155.885C133.67 154.154 133.826 152.434 133.909 150.703C134.116 146.796 134.438 142.878 134.427 138.971C134.417 135.799 134.365 132.535 133.66 129.467C132.363 123.819 132.031 118.108 131.709 112.377C131.554 109.568 131.388 106.739 130.838 103.992C130.579 102.676 129.645 101.246 128.587 100.406C126.751 98.9451 124.676 97.7118 122.549 96.7065C117.985 94.5404 113.762 91.8561 109.747 88.8298C103.834 84.3837 97.2467 81.7512 89.8604 81.1087C88.1383 80.9532 86.3539 80.8496 84.7252 80.321C82.3184 79.5333 79.839 78.6835 77.733 77.3154C74.7557 75.3774 71.5916 74.1544 68.1889 73.3564C63.1574 72.1853 58.4995 70.2783 54.2876 67.1691C47.1709 61.9042 39.9817 56.7326 32.7095 51.6853C29.7943 49.6643 26.5887 48.0683 23.518 46.2753C22.0968 45.4462 20.6859 44.6067 19.2646 43.788C13.9323 40.772 10.0524 36.3673 7.2203 31.0195C6.38 29.4338 5.24922 28.3042 3.7761 27.2781C-1.01674 23.9306 -0.508405 24.0031 1.34856 19.6088C2.42746 17.0489 2.86318 14.5408 2.054 11.7736C1.39006 9.49352 3.04991 6.53979 5.33221 5.8454C6.18289 5.5863 7.29292 5.92831 8.22658 6.18741C9.181 6.45687 10.0732 6.95435 10.9861 7.3689C11.8783 7.70055 12.7601 8.1462 13.7664 8.62295ZM198.425 161.585C198.975 162.311 199.535 163.036 200.085 163.761C203.685 169.627 207.295 175.504 210.905 181.37C211.165 181.795 211.507 182.178 211.808 182.582C211.963 182.479 212.119 182.375 212.275 182.272C209.557 177.784 206.891 173.276 204.1 168.829C202.959 167.005 201.558 165.337 200.282 163.596C199.732 162.86 199.183 162.124 198.633 161.388C198.197 160.714 197.855 159.937 197.305 159.367C193.415 155.263 189.483 151.2 185.551 147.138C185.012 146.578 184.358 146.122 183.767 145.624C183.787 146.277 184.047 146.702 184.379 147.055C189.057 151.895 193.747 156.735 198.425 161.585ZM200.261 415.772C201.32 415.088 202.378 414.394 203.446 413.73C208.364 410.725 210.926 411.606 213.488 414.85C213.53 414.902 213.644 414.891 213.717 414.912C213.395 412.01 212.254 410.476 210.179 410.176C206.507 409.626 201.776 412.145 200.064 415.555C199.369 415.979 198.664 416.404 197.969 416.84C198.124 417.047 198.27 417.244 198.425 417.451C199.037 416.891 199.649 416.332 200.261 415.772ZM249.642 101.64C250.265 99.4011 250.742 97.1003 251.541 94.9239C254.311 87.3478 253.73 79.6681 252.651 71.3147C252.122 72.4133 251.852 72.9626 251.593 73.5119C249.642 77.5746 249.238 81.8652 249.632 86.2907C249.964 90.0632 249.31 93.6802 248.045 97.2558C246.374 101.971 245.036 106.801 243.407 111.527C242.66 113.703 243.241 115.424 244.548 117.403C244.818 116.719 245.015 116.325 245.129 115.901C246.26 111.879 247.339 107.848 248.511 103.847C248.75 103.028 249.321 102.313 249.736 101.546C249.559 102.251 249.404 102.966 249.217 103.661C247.982 108.231 246.696 112.781 245.513 117.362C244.88 119.797 245.991 122.378 248.221 124.088C248.47 121.539 248.719 119.01 248.978 116.481C249.549 110.853 250.306 105.257 252.412 99.94C253.823 96.3852 255.275 92.8407 256.551 89.234C258.761 82.9949 260.317 76.6832 258.875 69.9467C257.495 63.5417 256.479 57.0539 255.057 50.6593C252.972 41.2177 247.215 34.8024 238.231 31.289C237.183 30.8744 236.021 30.7501 234.838 30.4702C234.942 33.4136 234.973 33.3514 236.944 34.222C238.262 34.8127 239.642 35.4346 240.731 36.3466C245.555 40.4093 249.487 45.1249 251.032 51.4573C251.312 52.6077 251.727 53.727 252.039 54.8671C252.983 58.2872 254.113 61.6658 253.906 65.314C253.792 67.3038 253.844 69.3145 253.937 71.3147C254.072 74.0404 254.279 76.7765 254.508 79.5023C255.182 87.3892 252.858 94.6026 249.642 101.64ZM234.112 71.6982C233.801 71.4702 233.5 71.066 233.178 71.0452C232.245 70.9934 231.301 71.1074 230.357 71.1489C230.585 70.2058 230.917 69.6046 231.415 69.4077C232.753 68.8688 234.143 68.4024 235.554 68.0811C237.525 67.6251 237.816 67.4697 238.106 65.542C238.521 62.7333 238.791 59.9558 237.141 57.344C235.99 55.52 235.046 53.5819 233.936 51.5609C230.834 55.0743 226.861 56.1936 222.545 56.3802C218.354 56.5667 214.163 56.66 209.972 56.7118C206.444 56.7533 203.903 58.1939 202.243 61.386C201.548 62.7333 200.479 63.9252 199.411 65.0238C198.114 66.3711 196.631 67.5526 195.707 68.3817C195.707 70.8794 195.635 72.7968 195.728 74.6934C195.801 76.051 195.842 77.4916 196.33 78.725C198.591 84.477 202.502 89.0786 207.347 92.7371C211.217 95.6701 215.148 94.3538 217.389 89.9388C213.903 88.4153 213.25 87.5551 213.686 84.8708C216.196 85.5652 218.686 86.2699 221.404 87.0265C221.943 86.3943 222.628 85.5963 223.531 84.5391C221.86 83.9484 220.47 83.5649 219.173 82.9846C217.285 82.1347 217.109 81.2641 218.229 79.2017C218.997 81.6061 219.007 81.6061 221.902 82.684C222.41 82.8705 222.867 83.1815 223.375 83.3991C225.014 84.0935 225.72 83.6686 225.854 81.8445C225.927 80.9325 225.813 80.0205 225.886 79.1084C226.02 77.4295 226.238 75.7505 226.415 74.0715C226.622 74.0819 226.84 74.0923 227.047 74.113C227.047 76.1961 227.047 78.2689 227.047 80.3936C228.489 79.5023 229.693 78.756 230.886 77.9995C228.904 80.3417 226.923 82.6944 224.692 85.3268C225.222 85.8554 225.761 86.3943 226.269 86.9021C229.091 83.1296 231.695 79.7406 234.206 76.2791C235.523 74.4654 236.55 72.4858 236.768 69.9259C235.731 70.6203 234.921 71.1592 234.112 71.6982ZM135.932 138.867C138.027 139.8 138.743 141.51 138.816 143.541C138.909 145.904 138.899 148.267 138.951 150.63C139.002 153.356 138.878 156.113 139.179 158.818C139.708 163.73 140.299 168.612 139.314 173.524C138.909 175.545 138.681 177.618 137.301 179.463C137.218 179.111 137.114 178.934 137.135 178.769C137.218 178.23 137.353 177.701 137.446 177.162C138.339 171.845 139.023 166.529 138.058 161.129C137.737 159.346 137.623 157.502 137.592 155.688C137.55 152.226 137.685 148.754 137.654 145.293C137.643 143.697 137.664 142.028 136.191 140.536C135.278 141.717 135.423 142.899 135.413 144.039C135.372 147.594 135.579 151.18 135.268 154.703C134.656 161.564 134.853 168.363 135.807 175.172C136.274 178.52 136.409 181.93 135.506 185.236C134.531 188.832 133.214 192.345 132.249 195.942C130.797 201.372 129.531 206.855 128.141 212.534C129.043 212.711 130.008 212.939 130.973 213.094C135.745 213.871 140.527 214.555 145.279 215.416C153.744 216.96 162.292 217.685 170.861 217.903C177.189 218.058 183.455 218.566 189.67 219.623C198.259 221.085 206.88 221.634 215.563 221.168C217.234 221.074 218.893 220.639 220.875 220.307C219.754 217.146 219.277 214.317 217.337 211.767C210.501 202.761 203.913 193.558 197.274 184.407C196.319 183.09 195.521 181.629 194.784 180.168C194.514 179.639 194.649 178.903 194.587 177.981C196.848 178.634 198.083 180.002 199.4 181.214C204.66 186.023 208.343 192.003 211.891 198.097C212.918 199.87 213.966 201.642 215.003 203.414C215.491 200.595 216.248 197.963 215.283 195.268C214.92 194.263 214.879 193.123 214.775 192.034C214.619 190.366 214.069 188.915 213.125 187.495C211.154 184.541 209.225 181.536 207.534 178.406C202.067 168.291 195.438 159.098 186.786 151.418C184.887 149.739 183.321 147.666 181.681 145.718C181.059 144.982 180.426 144.091 181.557 142.857C182.47 143.396 183.497 143.8 184.275 144.484C186.661 146.599 189.006 148.765 191.288 151.003C201.185 160.725 208.416 172.281 214.515 184.624C214.681 184.966 214.972 185.256 215.211 185.567C215.366 184.168 215.211 182.914 214.879 181.702C214.329 179.681 213.582 177.711 213.073 175.68C211.424 169.14 208.198 163.533 203.311 158.88C202.253 157.875 201.206 156.849 200.282 155.719C196.454 151.076 192.647 146.412 188.912 141.697C188.3 140.93 187.398 140.069 187.989 138.463C188.788 138.95 189.483 139.292 190.074 139.758C200.064 147.594 209.494 155.885 213.665 168.633C214.111 167.658 214.298 166.798 214.329 165.938C214.412 163.844 214.173 161.699 214.526 159.657C215.179 155.843 213.509 152.89 211.331 150.164C209.868 148.329 208.042 146.765 206.247 145.22C204.795 143.977 203.083 143.033 201.631 141.8C200.542 140.867 199.546 139.758 198.778 138.546C198.425 137.997 198.488 136.877 198.83 136.307C199.068 135.913 200.21 135.727 200.791 135.924C202.243 136.421 203.695 137.033 204.971 137.872C207.679 139.665 209.65 142.194 211.362 144.92C212.7 147.044 214.049 149.169 215.408 151.335C215.646 151.066 215.833 150.952 215.854 150.817C215.906 150.371 215.947 149.905 215.906 149.459C215.615 146.039 216.196 142.754 217.213 139.489C217.97 137.053 218.561 134.566 219.111 132.068C219.277 131.312 219.329 130.358 219.007 129.695C217.545 126.7 217.462 123.56 217.586 120.336C217.763 115.517 218.24 110.677 217.223 105.879C216.362 101.795 216.424 97.7221 217.576 93.6906C217.7 93.2656 217.648 92.7992 217.711 91.9079C213.447 96.6132 209.204 95.9706 205.168 92.6749C202.129 93.6491 199.349 94.5093 196.589 95.4421C194.213 96.2401 192.377 95.6286 190.738 93.7424C188.124 90.7264 185.676 87.6069 183.943 84.0728C182.117 85.389 180.488 86.6949 178.735 87.8038C174.202 90.6643 169.876 93.7113 167.303 98.6549C167.635 94.7788 168.89 91.369 172.148 88.9957C173.911 87.7002 175.872 86.6534 177.542 85.2543C178.839 84.166 179.928 82.7773 180.893 81.3781C181.277 80.8288 181.298 79.8235 181.101 79.1291C180.042 75.2841 178.86 71.4702 177.615 67.2831C172.49 67.024 166.909 68.0811 161.493 66.0083C161.649 69.6979 161.296 72.4651 159.429 75.4914C155.995 81.0776 152.458 86.6223 148.598 91.9079C145.165 96.6132 141.482 101.194 136.274 104.189C135.745 104.49 135.278 104.925 134.614 105.423C135.133 106.293 135.537 107.091 136.056 107.806C137.55 109.879 139.075 111.931 140.61 113.973C151.057 127.902 156.804 143.624 158.599 160.88C158.941 164.217 159.398 167.638 160.446 170.799C162.375 176.582 164.844 182.189 166.981 187.899C168.901 193.009 170.747 198.16 172.469 203.342C172.946 204.772 173.019 206.399 172.926 207.922C172.884 208.658 172.158 209.632 171.494 209.943C171.058 210.14 169.959 209.498 169.513 208.948C168.652 207.902 167.905 206.71 167.355 205.466C163.714 197.113 160.051 188.759 156.597 180.323C154.657 175.587 153.64 170.56 152.935 165.482C152.333 161.15 151.783 156.807 151.036 152.496C149.563 144.049 146.119 136.297 142.312 128.69C139.407 122.886 136.731 117.01 134.967 110.75C134.728 109.921 134.396 109.112 134.116 108.304C133.473 108.801 133.151 109.278 133.193 109.724C133.691 115.165 134.054 120.637 134.842 126.037C135.486 130.224 136.399 134.317 135.932 138.867ZM191.288 324.766C187.346 326.165 183.704 326.186 180.146 325.149C178.652 324.714 177.221 323.698 176.048 322.631C175.021 321.698 175.582 320.548 177.003 320.351C177.719 320.247 178.466 320.268 179.192 320.361C181.63 320.693 184.057 321.128 186.495 321.418C188.082 321.605 189.773 321.957 190.676 320.859C190.52 315.21 190.375 310.028 190.219 304.846C190.199 304.121 190.136 303.385 190.012 302.68C189.192 298.11 188.269 293.55 187.553 288.958C186.028 279.247 184.586 269.516 183.175 259.784C182.999 258.571 182.439 258.094 181.35 257.773C179.171 257.141 177.044 256.301 174.866 255.659C173.299 255.193 171.702 254.685 170.083 254.581C165.529 254.291 160.964 254.063 156.41 254.053C150.009 254.042 144.314 256.457 138.909 259.659C138.785 259.732 138.743 259.97 138.536 260.395C140.455 264.997 142.384 269.816 144.449 274.573C147.644 281.932 150.902 289.259 155.777 295.736C159.803 301.074 162.168 307.158 163.475 313.687C164.139 316.993 164.855 320.289 165.488 323.595C165.757 325.004 166.307 326.124 167.562 326.963C168.33 327.471 168.849 328.352 169.845 329.461C168.423 329.865 167.542 330.103 166.535 330.383C166.712 339.752 164.243 349.007 164.512 358.822C172.895 353.847 181.391 352.728 190.365 355.267C190.105 349.961 189.566 344.976 189.721 340.011C189.867 335.047 190.707 330.093 191.288 324.766ZM155.943 65.3243C153.371 65.0341 150.839 64.661 148.298 64.4848C142.841 64.091 137.374 63.8215 131.917 63.4588C127.549 63.1686 123.182 62.754 118.814 62.5053C116.584 62.3706 114.385 62.6608 111.76 63.4588C113.295 64.4434 114.416 65.2103 115.578 65.884C121.449 69.2212 127.415 72.4029 133.172 75.9163C135.869 77.5538 138.204 79.7924 140.642 81.8341C141.223 82.3213 141.907 83.026 140.87 84.021C140.444 83.8966 139.905 83.8137 139.449 83.5857C134.407 81.0154 129.303 78.5695 124.811 75.0457C121.366 72.3407 117.912 69.6357 114.291 67.1691C111.138 65.0134 107.849 63.0235 104.457 61.272C101.905 59.9454 99.0622 59.3961 95.867 59.8625C98.8754 63.3241 101.676 66.5369 104.467 69.7705C105.173 70.5996 105.868 71.4598 106.428 72.3822C106.666 72.776 106.801 73.6051 106.573 73.8435C106.2 74.227 105.473 74.4757 104.924 74.4239C104.228 74.3617 103.523 74.0301 102.88 73.6881C100.795 72.5895 99.2385 70.9416 98.1908 68.8481C97.2467 66.9722 96.2715 65.1067 95.5454 63.1479C94.9022 61.4067 93.761 60.2667 92.2464 59.3028C87.661 56.3802 82.6815 54.4007 77.4218 53.0741C72.6808 51.8719 68.2615 49.9234 64.4334 46.8557C60.3875 43.6118 55.8748 41.3731 50.9782 39.6942C47.6274 38.5438 44.4114 36.9995 41.1332 35.6211C40.5938 35.3931 40.0439 35.1651 39.5252 34.9371C38.9339 36.2948 38.4671 37.4866 37.9276 38.6267C36.2678 42.0986 33.4356 41.7773 30.5413 40.202C29.452 39.6113 29.4001 38.6474 30.3234 37.7043C30.9562 37.0617 31.7239 36.5332 32.4708 36.0253C33.7261 35.1651 35.0125 34.3567 36.1122 33.6416C35.0125 31.7554 34.0166 30.0453 33.0103 28.356C32.5953 27.6512 32.2115 26.905 31.672 26.3039C30.23 24.656 29.3482 24.4695 27.5017 25.7753C24.6799 27.7652 21.5158 27.7652 18.3102 27.703C17.2935 27.6823 16.5259 27.2159 16.4325 26.107C16.3391 24.9255 16.9927 24.0446 18.1131 24.0238C19.3476 24.0031 20.6133 24.314 21.827 24.6146C22.6466 24.8219 23.4143 25.2675 24.794 25.8686C23.7255 23.1222 23.4246 20.8006 21.8789 18.7589C19.0883 19.8264 16.4221 20.8628 14.2539 21.6919C14.0257 23.6715 13.8493 25.0706 13.7145 26.4801C13.6834 26.8325 13.6834 27.2056 13.756 27.5476C14.0361 28.7498 14.9386 30.3148 13.3929 30.9055C12.5318 31.2372 11.1728 30.263 9.65821 29.7448C9.58559 29.7966 9.02539 30.0557 8.36145 30.3666C10.5815 34.0873 12.9468 37.5281 16.5674 39.8807C19.1713 41.5701 21.8374 43.1454 24.4828 44.7622C28.6117 47.2806 32.8858 49.5711 36.8383 52.3382C43.2703 56.8362 49.5051 61.614 55.7918 66.3193C60.346 69.729 65.5746 71.3147 71.6331 72.4029C70.7098 71.522 70.2118 71.0141 69.6827 70.5478C66.1348 67.3971 62.4416 64.3916 59.07 61.0647C57.2131 59.2407 55.8333 56.9295 54.3602 54.7531C53.8415 53.9861 53.3332 52.9704 54.3913 51.9548C55.8022 52.0791 56.4661 53.2399 57.2753 54.1727C60.5328 57.8726 63.6969 61.6555 67.0581 65.2518C69.7242 68.1122 72.5564 70.838 75.4715 73.4497C78.231 75.9163 81.4677 77.616 85.1609 78.2689C87.3187 78.6524 89.4869 78.9841 91.6551 79.2639C97.3712 79.9894 102.652 81.886 107.403 85.1299C113.14 89.0371 118.856 92.9133 125.236 95.7633C127.342 96.7065 129.116 98.4165 131.025 99.8053C131.502 100.147 131.886 100.624 132.145 100.873C142.945 90.8405 150.922 79.1395 155.943 65.3243ZM249.756 170.135C251.24 173.804 263.274 190.169 266.23 192.449C266.355 191.672 266.438 190.967 266.573 190.273C267.112 187.557 267.942 184.935 269.851 182.873C270.37 182.313 271.459 181.95 272.206 182.054C272.621 182.116 273.202 183.36 273.129 184.023C272.994 185.36 272.683 186.759 272.061 187.93C270.785 190.324 269.26 192.584 267.724 195.092C268.43 197.123 270.432 197.766 272.403 198.595C272.714 198.232 272.963 197.983 273.181 197.704C274.955 195.392 276.677 193.04 278.493 190.76C279.82 189.101 281.107 189.288 282.02 191.216C282.289 191.775 282.455 192.428 282.497 193.04C282.767 196.719 279.665 200.222 275.972 200.471C275.256 200.523 274.54 200.543 273.586 200.585C273.783 201.528 273.814 202.357 274.125 203.082C275.266 205.684 276.625 208.109 279.053 209.829C284.043 213.353 289.116 216.784 293.473 221.126C294.012 221.655 295.164 221.997 295.89 221.831C298.307 221.282 300.475 220.183 302.135 218.224C301.772 217.416 301.482 216.753 301.17 216.1C296.658 206.834 291.699 197.818 286.522 188.904C283.109 183.038 279.26 177.556 274.748 172.498C272.642 170.135 270.743 167.503 269.166 164.756C263.481 154.88 258.014 144.878 252.371 134.981C248.667 128.482 244.735 122.129 242.017 115.113C241.001 112.48 239.828 109.9 238.594 107.371C237.515 105.163 236.052 103.132 235.098 100.873C232.992 95.867 229.184 92.1567 225.782 88.1147C225.471 87.7416 225.004 87.4929 224.475 87.068C224.143 88.0629 223.852 88.8298 223.645 89.6071C220.709 100.489 220.947 111.423 223.157 122.368C223.842 125.788 224.734 129.156 222.659 132.41C223.302 133.322 223.863 134.152 224.454 134.95C228.002 139.696 231.892 144.215 235.025 149.221C238.303 154.455 243.293 158.123 246.675 163.741C247.225 161.668 247.547 160.072 248.086 158.559C248.294 157.968 248.968 157.18 249.466 157.16C249.953 157.139 250.638 157.875 250.97 158.434C253.066 162 252.557 166.591 249.756 170.135ZM220.055 255.597C219.412 253.472 218.561 251.513 218.24 249.472C217.721 246.062 217.368 242.6 217.265 239.159C217.161 235.501 216.144 232.174 214.464 228.982C213.903 227.915 213.188 227.469 211.912 227.345C205.293 226.692 198.685 225.894 192.076 225.106C189.638 224.816 187.211 224.111 184.773 224.09C176.992 224.007 169.326 222.753 161.618 221.945C158.703 221.644 155.767 220.898 152.572 221.499C154.564 226.536 156.701 231.355 156.535 236.662C156.379 241.844 155.891 247.015 155.518 252.519C158.257 252.519 161.162 252.467 164.066 252.529C168.735 252.633 173.341 253.089 177.677 255.099C179.192 255.804 180.893 256.115 182.615 256.633C182.802 255.908 182.978 255.483 183.02 255.058C183.269 252.519 183.549 249.99 183.673 247.44C183.715 246.487 183.59 245.409 183.175 244.559C181.08 240.299 178.912 236.081 175.457 232.692C174.596 231.842 173.984 230.734 173.237 229.718C175.125 228.681 175.125 228.661 176.494 229.231C178.891 230.226 180.52 232.039 181.671 234.288C182.543 235.988 183.227 237.791 184.161 239.46C185.603 242.061 185.8 244.777 185.427 247.668C185.074 250.373 184.97 253.109 184.763 255.825C184.711 256.457 184.835 257.172 184.586 257.711C183.974 259.048 184.441 260.167 185.063 261.535C185.831 260.105 186.454 258.799 187.2 257.566C188.995 254.623 191.257 252.114 194.587 250.933C195.489 250.612 197.025 250.601 197.616 251.151C198.633 252.104 197.429 253.099 196.797 253.949C196.423 254.457 195.946 254.892 195.5 255.358C192.896 258.043 190.292 260.727 187.698 263.422C187.304 263.826 187.035 264.354 186.63 264.924C193.176 265.671 198.55 264.686 202.772 262.282C205.532 260.706 208.478 259.39 211.445 258.24C214.225 257.182 217.161 256.478 220.055 255.597ZM224.744 256.322C217.265 257.877 210.231 260.074 203.809 263.846C199.12 266.603 194.058 267.215 188.777 266.925C187.709 266.862 186.63 266.914 185.52 266.914C185.458 267.287 185.333 267.567 185.385 267.806C186.578 274.532 187.813 281.248 188.995 287.974C189.856 292.907 190.873 297.83 191.402 302.794C191.879 307.313 191.744 311.884 191.962 316.433C192.066 318.61 192.626 320.797 192.533 322.952C192.377 326.756 192.024 330.58 191.475 334.342C191.018 337.441 193.083 339.068 195.946 337.534C197.471 336.716 198.913 335.731 200.469 334.985C203.446 333.555 204.639 331.347 203.789 328.051C203.436 328.082 203.073 328.072 202.72 328.145C200.033 328.684 197.927 327.388 195.977 325.865C195.51 325.502 195.085 324.331 195.303 324.03C195.697 323.502 196.662 323.035 197.284 323.128C198.415 323.305 199.515 323.854 200.573 324.362C201.62 324.87 202.606 325.512 203.768 326.186C205.822 324.279 207.617 322.31 209.702 320.734C212.617 318.527 213.53 315.542 213.748 312.153C213.81 311.241 213.81 310.329 213.737 309.417C213.343 304.359 214.516 299.664 216.777 295.166C218.956 290.824 220.408 286.233 221.103 281.413C221.56 278.17 221.943 274.915 222.421 271.671C223.147 266.655 223.935 261.629 224.744 256.322ZM192.626 371.083C189.016 368.336 185.489 369.062 182.034 370.575C177.252 372.668 173.102 375.798 168.859 378.897C170.311 385.095 172.251 391.054 174.679 396.848C174.845 397.252 175.104 397.749 175.457 397.915C176.37 398.34 176.609 398.848 176.349 399.863C176.214 400.382 176.567 401.076 176.826 401.636C177.604 403.284 178.362 404.942 179.264 406.517C181.08 409.668 182.003 413.026 182.076 416.663C182.117 418.726 182.397 420.778 182.584 422.965C185.136 421.452 186.858 419.555 188.954 416.093C188.871 415.948 188.808 415.783 188.694 415.669C188.58 415.534 188.404 415.451 188.269 415.327C186.765 413.886 186.547 412.798 187.512 411.595C188.404 410.487 189.524 410.393 191.184 411.305C191.879 411.689 192.543 412.103 193.28 412.539C193.601 412.093 194.006 411.803 193.996 411.523C193.57 398.06 193.093 384.597 192.626 371.083ZM143.837 61.9767C148.879 62.8266 153.215 64.3605 157.914 63.7904C161.919 58.1006 167.303 54.2556 174.015 52.2242C177.542 51.1567 180.727 49.3949 183.621 47.0941C186.962 44.4409 190.697 42.6583 194.95 41.9328C197.492 41.4975 199.784 40.3886 201.942 38.948C204.297 37.3934 206.673 35.7973 209.214 34.5951C215.698 31.5481 222.358 31.061 229.091 33.8696C229.631 34.0976 230.16 34.3464 231.104 34.7713C230.792 33.9007 230.709 33.4551 230.492 33.1027C228.79 30.5117 226.28 29.4027 223.282 29.3613C217.482 29.2887 212.078 30.9781 207.025 33.6209C202.077 36.2119 197.004 37.7976 191.34 37.7147C186.931 37.6525 182.843 39.1138 179.627 42.2541C175.374 46.4204 170.457 49.4571 164.865 51.4055C160.477 52.9393 157.012 55.5925 154.481 59.4894C153.983 60.2563 153.36 60.9507 152.79 61.6762C152.582 60.8056 152.748 60.2149 153.059 59.6967C155.487 55.5614 158.755 52.4004 163.35 50.7111C168.683 48.7419 173.787 46.3479 177.874 42.2023C181.879 38.1396 186.817 36.357 192.471 36.4295C197.139 36.4813 201.465 35.2895 205.563 33.0612C209.515 30.9159 213.737 29.4131 218.167 28.6462C220.128 28.3042 222.151 28.0865 224.132 28.1487C226.85 28.2316 229.184 29.4546 231.145 31.5274C231.685 28.7705 231.674 28.6876 229.88 27.4958C226.415 25.1846 222.711 24.4073 218.686 25.8064C217.648 26.1692 216.621 26.5526 215.615 26.9776C212.876 28.1591 210.065 28.6151 207.067 28.2938C201.818 27.7134 196.817 28.7705 192.367 31.5792C187.117 34.8957 181.433 36.8648 175.436 38.3054C167.697 40.1502 160.518 43.4356 154.854 49.1461C151.026 53.043 147.717 57.427 143.837 61.9767ZM201.589 444.636C202.056 443.289 202.565 442.055 202.928 440.77C203.633 438.21 204.961 436.127 207.16 434.583C207.969 434.013 208.716 433.308 209.391 432.572C212.866 428.779 214.339 424.343 213.395 419.244C212.295 413.243 208.862 411.751 203.872 415.254C200.894 417.348 198.114 419.731 195.365 422.125C193.01 424.177 191.724 426.862 191.443 430.012C191.371 430.831 191.381 431.691 191.091 432.437C190.24 434.624 189.389 436.842 188.3 438.915C186.433 442.459 186.578 446.501 188.881 449.03C189.867 446.864 191.132 446.222 192.73 447.082C194.245 447.901 194.348 448.895 193.186 451.176C197.46 451.704 199.556 450.44 200.459 446.771C198.363 447.413 197.512 447.248 197.046 446.045C196.641 444.999 196.869 444.066 197.824 443.392C198.975 442.573 199.909 442.864 201.589 444.636ZM232.826 40.8342C230.595 45.27 226.892 45.5498 223.043 45.498C222.4 45.4876 221.767 45.4773 221.124 45.498C217.472 45.6431 213.82 45.6742 210.189 45.9851C206.579 46.296 203.166 47.291 200.801 50.3587C199.639 51.8615 198.508 53.4057 197.274 55.0536C197.564 55.6444 197.917 56.3698 198.363 57.2922C198.819 56.66 199.089 56.2973 199.349 55.9345C202.056 52.0791 205.739 50.0167 210.501 50.1307C212.866 50.1929 215.231 50.4105 217.597 50.5971C222.815 51.0116 227.825 50.6385 231.975 46.8971C232.006 46.8764 232.203 47.0422 232.463 47.2081C231.124 49.0736 229.34 50.2447 227.193 50.8666C224.278 51.706 221.29 51.9859 218.25 51.7164C215.885 51.5091 213.52 51.3226 211.154 51.2086C205.874 50.9495 202.067 53.3539 199.4 57.7793C199.027 58.4012 198.602 59.0126 198.332 59.6863C197.45 61.8731 195.967 63.5417 194.11 64.9512C188.85 68.9621 184.794 73.8953 182.511 80.1759C182.387 80.5179 182.19 80.8288 182.034 81.1605C180.986 83.3577 179.472 85.1195 177.418 86.4461C175.737 87.5343 174.067 88.6537 172.449 89.8455C171.162 90.799 170.062 91.9494 169.347 94.074C171.307 92.4054 172.76 91.0581 174.337 89.8559C176.007 88.5915 177.76 87.4411 179.524 86.2907C181.723 84.8604 183.404 82.9638 184.69 80.7252C185.727 78.9115 186.63 77.0149 187.574 75.139C189.037 72.2475 190.946 69.8327 193.705 67.9671C197.056 65.6871 200.521 63.4899 202.357 59.4998C203.509 57.002 205.998 55.9656 208.675 55.748C211.123 55.5511 213.592 55.6547 216.051 55.4889C219.588 55.2505 223.188 55.2194 226.653 54.5147C232.411 53.3539 235.201 50.5245 233.625 43.933C233.448 43.0936 233.199 42.2334 232.826 40.8342ZM242.183 111.486C243.646 106.842 244.808 102.427 246.426 98.1885C248.117 93.732 248.875 89.2548 248.397 84.5288C248.034 80.8288 248.594 77.2533 250.119 73.8435C250.638 72.6827 251.115 71.4909 251.561 70.299C252.931 66.5991 253.252 62.8577 252.07 59.0334C251.292 56.5046 250.451 53.9965 249.787 51.4366C248.387 46.0162 245.212 41.7462 241.239 37.9945C239.59 36.4399 237.743 35.1755 235.409 34.6676C235.409 36.5021 235.388 36.5228 236.737 37.3416C242.069 40.5648 245.171 45.2804 246.26 51.3744C246.789 54.3281 247.184 57.3233 247.941 60.2252C248.916 63.9459 248.792 67.4386 246.696 70.7447C244.517 74.1959 243.739 77.9684 244.144 82C244.414 84.7257 243.646 87.1612 242.422 89.5968C241.042 92.3536 239.735 95.2244 238.957 98.1885C238.407 100.303 238.334 102.759 238.863 104.873C239.424 107.081 240.928 109.081 242.183 111.486ZM170.913 208.617C171.131 208.524 171.349 208.42 171.567 208.327C172.117 205.933 171.473 203.621 170.654 201.435C168.589 195.89 166.463 190.355 164.118 184.925C160.715 177.027 157.748 169.099 156.908 160.404C155.269 143.407 149.138 128.078 138.816 114.45C138.546 114.097 138.183 113.817 137.861 113.506C137.685 113.62 137.519 113.734 137.343 113.849C139.21 117.973 140.859 122.212 142.976 126.202C148.941 137.447 152.966 149.242 154.19 161.958C154.719 167.503 155.58 173.037 157.655 178.219C161.369 187.526 165.353 196.719 169.274 205.953C169.668 206.907 170.363 207.725 170.913 208.617ZM232.183 40.0466C230.917 39.6631 229.714 39.3211 228.521 38.9376C222.286 36.9477 216.3 36.9374 210.905 41.2488C207.793 43.7361 204.339 45.4151 200.427 46.3064C195.261 47.4879 190.863 50.1722 187.999 54.6287C185.437 58.6188 182.003 60.8367 177.501 61.7695C175.27 62.2358 173.05 62.7644 170.892 63.4588C169.585 63.8837 168.216 64.433 167.085 66.1845C168.693 66.1845 169.834 66.2674 170.965 66.1742C175.467 65.8011 179.876 65.9876 184.119 67.8428C184.908 68.1951 186.122 68.0708 186.962 67.7288C188.362 67.1484 189.618 66.2156 191.08 65.345C190.593 63.6143 190.074 62.07 189.732 60.4947C189.431 59.0852 189.192 57.6342 189.172 56.1936C189.14 53.4057 193.249 50.5453 195.728 53.1881C195.967 53.4368 196.288 53.613 196.776 53.9758C197.606 52.929 198.508 52.017 199.141 50.9495C200.925 47.9439 203.529 46.0577 206.88 45.3322C209.277 44.814 211.735 44.4823 214.173 44.3683C217.908 44.1921 221.653 44.3061 225.398 44.244C228.458 44.2025 230.875 43.021 232.183 40.0466ZM231.913 36.3259C231.228 36.0046 230.647 35.7559 230.087 35.4657C225.336 33.0198 220.356 32.6467 215.2 33.7763C210.646 34.7713 206.745 37.0928 202.98 39.6942C200.542 41.3835 197.896 42.5754 194.981 43.0832C191.215 43.7465 187.813 45.2078 184.825 47.5604C181.194 50.4209 177.127 52.3901 172.729 53.7581C167.894 55.2609 164.004 58.225 160.591 61.8731C160.072 62.4328 159.678 63.0961 159.118 63.8526C160.404 64.2776 161.431 64.6092 162.209 64.8683C163.755 63.6453 165 62.4017 166.473 61.5518C169.699 59.6863 172.998 57.9141 176.349 56.2869C181.433 53.8203 186.692 51.6957 191.672 49.0425C194.576 47.4983 197.357 45.7571 200.604 45.0627C203.986 44.3476 206.994 42.9381 209.64 40.7513C215.885 35.5693 222.742 35.5279 229.942 38.3365C230.492 38.5541 231.083 38.6371 231.913 38.8547C231.913 37.8079 231.913 37.041 231.913 36.3259ZM131.689 218.452C131.658 219.116 131.595 219.561 131.616 219.996C131.792 224.401 132.747 228.65 134.189 232.806C134.967 235.035 135.786 237.315 136.056 239.636C136.461 243.056 136.45 246.528 136.513 249.979C136.565 252.778 136.305 255.597 137.291 258.488C138.66 257.763 139.926 257.089 140.88 256.581C141.036 252.861 141.16 249.43 141.347 245.989C141.586 241.512 141.42 237.066 140.642 232.641C139.781 227.811 137.54 223.551 135.517 219.053C134.293 218.867 133.068 218.67 131.689 218.452ZM235.886 40.8342C235.606 40.8964 235.326 40.9586 235.046 41.0208C235.046 44.1921 235.004 47.3739 235.077 50.5453C235.087 51.2397 235.347 52.0066 235.699 52.6077C236.457 53.9032 237.349 55.1054 238.231 56.4216C239.766 53.2503 237.39 50.5764 237.556 47.6744C238.874 49.996 240.025 52.2968 239.756 55.0847C239.486 57.8001 239.455 60.5362 239.227 63.2619C238.718 69.3663 237.162 75.0561 232.878 79.751C231.259 81.5232 229.9 83.5442 228.427 85.4615C231.249 84.0002 233.853 82.3731 236.363 80.6216C239.102 78.7146 240.886 76.2376 240.98 72.6827C241.073 68.6822 241.862 64.7958 242.785 60.8678C244.663 52.8461 241.384 46.3686 235.886 40.8342ZM9.67896 16.9038C8.60005 14.3853 6.87795 12.4991 9.00464 9.78371C9.06689 11.2554 8.88015 12.3333 9.20175 13.2142C9.59597 14.292 10.4363 15.1937 11.1002 16.199C11.567 15.6705 11.9716 15.2041 12.3866 14.7377C12.5215 14.8206 12.6563 14.8932 12.7912 14.9761C12.4592 15.9606 12.1376 16.9452 11.7849 17.992C12.2829 18.8315 12.7704 19.6606 13.258 20.4793C15.0735 19.8264 16.6296 19.3082 18.1546 18.7175C22.3769 17.08 22.6051 16.5307 20.8207 12.354C20.6444 11.9394 20.4265 11.5249 20.2087 11.131C18.7459 8.5504 17.9367 5.77285 17.584 2.85021C17.5114 2.26982 17.3662 1.68944 17.1898 0.808501C13.8701 3.38913 14.8971 6.63306 15.2187 10.1568C13.6419 9.59716 12.4592 9.23442 11.3284 8.76804C9.81382 8.15657 8.36145 7.35854 6.81571 6.81961C6.24513 6.6227 5.30109 6.74707 4.855 7.12017C2.59345 8.96496 2.70757 12.8722 5.09361 14.5304C6.31775 15.3803 7.75975 15.9192 9.67896 16.9038ZM235.575 37.5385C234.932 38.7407 235.201 39.3936 236.114 40.0362C237.079 40.6995 238.044 41.4561 238.781 42.3577C243.677 48.3585 245.793 55.0225 243.636 62.7437C243.024 64.9201 242.484 67.1898 242.411 69.4388C242.225 75.1805 240.803 80.549 238.542 85.7828C237.753 87.5965 237.266 89.5553 236.851 91.5037C236.405 93.5455 236.26 95.639 235.886 97.6911C235.575 99.4426 236.166 100.728 237.878 102.127C237.339 97.4009 238.729 93.5558 240.783 89.9906C242.536 86.9436 243.345 83.824 243.003 80.3314C242.681 77.0564 243.49 73.999 245.098 71.1385C245.544 70.3405 245.856 69.4803 246.302 68.6822C247.391 66.7545 247.588 64.6817 247.194 62.5779C246.437 58.5566 245.586 54.5458 244.735 50.5349C244.486 49.3741 244.185 48.2237 243.76 47.1252C242.162 43.0003 239.403 39.8704 235.575 37.5385ZM186.661 79.5437C187.584 81.2227 188.29 82.8291 189.275 84.2282C190.738 86.301 192.346 88.2805 194.047 90.1668C194.587 90.7679 195.676 91.3276 196.402 91.2136C198.228 90.913 200.064 90.3948 201.372 89.2755C199.328 86.0108 196.817 83.14 195.645 79.8028C194.462 76.4345 194.608 72.5998 194.172 68.9517C190.894 71.0971 189.431 73.1699 186.661 79.5437ZM142.125 220.857C142.747 222.09 143.225 223.168 143.795 224.183C146.254 228.516 147.229 233.2 146.991 238.113C146.835 241.471 146.399 244.829 146.109 248.186C145.943 250.135 145.735 252.094 146.233 254.229C147.613 253.845 148.723 253.534 150.061 253.161C148.692 248.01 149.2 242.942 150.238 237.947C151.192 233.335 150.113 229.148 148.588 224.878C147.52 221.852 145.714 220.442 142.125 220.857ZM164.056 361.869C164.409 362.885 164.782 363.952 165.207 365.186C165.695 364.792 165.996 364.584 166.245 364.336C169.233 361.309 172.946 359.827 177.096 359.869C181.184 359.9 185.271 360.408 189.358 360.698C190.033 360.75 190.697 360.77 191.412 360.802C191.101 357.081 190.748 356.625 187.47 356.086C182.833 355.319 178.196 355.164 173.642 356.563C170.135 357.63 166.587 358.625 164.056 361.869ZM167.013 372.306C170.343 368.74 173.994 366.284 178.351 364.906C182.802 363.496 187.273 363.807 191.765 364.854C191.744 362.729 191.765 362.605 190.406 362.398C187.263 361.9 184.099 361.403 180.935 361.123C174.669 360.574 169.17 362.066 165.28 367.694C165.778 369.01 166.317 370.45 167.013 372.306ZM142.291 255.597C144.096 255.317 144.76 254.83 144.812 253.254C144.957 248.705 145.31 244.165 145.652 239.626C145.953 235.563 145.466 231.614 143.941 227.842C143.121 225.821 142.052 223.904 141.119 221.924C140.061 219.686 139.853 219.572 137.218 219.831C137.228 219.924 137.197 220.028 137.239 220.1C137.488 220.587 137.726 221.074 137.996 221.551C140.88 226.629 142.737 232.019 142.706 237.905C142.685 241.719 142.416 245.544 142.312 249.358C142.25 251.348 142.291 253.317 142.291 255.597ZM153.692 251.306C155.674 240.921 156.265 230.879 150.684 221.302C150.092 221.333 149.294 221.375 148.215 221.427C148.661 222.422 148.993 223.251 149.387 224.038C151.628 228.567 152.727 233.242 151.545 238.31C151.171 239.895 150.974 241.543 150.912 243.17C150.808 245.969 150.881 248.767 150.881 251.876C152.063 251.638 152.924 251.462 153.692 251.306ZM192.242 366.657C181.598 363.735 172.127 366.864 167.365 374.772C167.759 375.467 168.195 376.213 168.683 377.063C169.513 376.534 170.114 376.14 170.737 375.778C174.42 373.591 177.999 371.207 181.806 369.29C184.96 367.694 188.414 367.165 191.807 368.948C191.921 369.01 192.118 368.906 192.439 368.844C192.377 368.15 192.315 367.455 192.242 366.657ZM190.427 417.161C187.937 419.918 185.634 422.467 183.217 425.152C183.58 427.276 183.974 429.587 184.379 431.961C185.831 431.411 187.169 430.872 188.518 430.385C189.555 430.012 190.147 429.37 190.282 428.219C190.634 425.266 192.315 423.017 194.338 421.006C194.908 420.436 195.624 420.032 196.631 419.275C194.151 418.425 192.315 417.804 190.427 417.161ZM225.253 23.5885C225.107 23.4849 224.983 23.3605 224.827 23.2984C224.495 23.1636 224.143 23.0393 223.8 22.946C219.568 21.8578 215.439 22.3967 211.476 24.0031C208.032 25.3919 204.494 26.0863 200.811 26.0863C192.46 26.0759 186.059 30.2526 180.219 35.6937C181.733 35.3931 183.258 35.0615 184.617 34.3982C186.827 33.3307 188.964 32.1077 191.08 30.8433C195.998 27.9 201.268 26.2625 206.994 26.9361C209.743 27.2678 212.264 27.0294 214.733 25.9619C218.115 24.4798 221.56 23.4124 225.253 23.5885ZM239.652 80.1345C235.845 83.2229 230.782 84.4873 228.116 88.6744C230.481 91.5659 232.712 94.2813 235.243 97.3698C235.679 94.1362 235.803 91.2239 236.519 88.4567C237.266 85.5963 238.583 82.9016 239.652 80.1345ZM300.195 237.771C300.392 237.833 300.589 237.895 300.787 237.947C301.928 235.822 302.986 233.656 304.22 231.583C306.42 227.883 306.015 223.054 302.457 220.131C300.112 221.292 297.809 222.432 295.516 223.562C296.824 226.101 299.573 225.583 301.326 226.681C302.114 230.578 300.88 234.154 300.195 237.771ZM163.299 65.0238C164.637 65.6041 165.446 66.112 166.338 65.0756C168.278 62.837 170.903 61.8835 173.693 61.2513C175.467 60.8471 177.231 60.4118 179.005 60.0076C183.404 59.0023 186.142 56.1004 188.352 51.6749C179.814 56.2247 170.903 58.8468 163.299 65.0238ZM192.273 65.2103C193.518 64.1946 194.317 63.6039 195.043 62.9406C198.218 60.0387 198.332 57.344 195.427 54.2659C193.705 52.4522 191.029 53.0844 190.375 55.5407C190.147 56.3906 190.105 57.3855 190.302 58.2353C190.811 60.4118 191.506 62.5468 192.273 65.2103ZM210.521 164.86C206.538 154.807 198.799 148.537 191.091 142.215C191.112 142.712 191.288 143.106 191.547 143.427C193.684 146.029 195.749 148.703 197.99 151.211C201.984 155.667 206.081 160.041 210.521 164.86ZM222.68 253.887C222.68 253.431 222.721 253.078 222.67 252.736C222.099 248.788 221.477 244.839 220.927 240.88C220.346 236.724 219.443 232.661 217.887 228.744C217.379 227.469 216.819 226.909 215.345 227.728C215.688 228.453 215.999 229.189 216.362 229.894C217.804 232.682 218.644 235.625 218.717 238.776C218.759 240.413 218.676 242.072 218.904 243.689C219.339 246.653 219.941 249.586 220.522 252.529C220.73 253.441 221.124 254.312 222.68 253.887ZM227.141 253.845C227.089 253.172 227.162 252.757 227.006 252.467C224.744 248.197 224.475 243.409 223.406 238.828C222.69 235.729 221.891 232.651 221.01 229.593C220.709 228.547 220.46 227.345 219.018 226.422C219.08 227.282 218.997 227.79 219.163 228.205C220.968 232.63 221.829 237.242 222.317 241.989C222.742 246.207 223.593 250.373 224.288 254.747C225.429 254.384 226.186 254.146 227.141 253.845ZM161.67 384.577C162.438 385.084 163.06 385.489 163.869 386.028C164.149 384.939 164.429 384.162 164.523 383.364C164.824 380.835 164.907 378.265 165.342 375.757C165.819 373.021 165.104 370.575 164.149 368.087C162.189 368.367 162.375 369.694 162.521 370.989C163.05 375.446 163.226 379.892 161.67 384.577ZM13.009 25.4852C13.3514 22.5418 11.567 20.5726 10.8616 18.7693C8.12284 17.5049 5.85092 16.4581 3.55824 15.401C3.39226 17.4116 3.31964 17.5152 4.5749 18.448C6.63935 19.9819 8.40294 21.7438 9.8242 23.8891C10.4881 24.8633 11.4218 25.6199 13.009 25.4852ZM180.696 416.788C181.059 410.797 177.636 406.59 175.104 401.522C174.233 407.896 176.349 412.601 180.696 416.788ZM196.465 180.074C196.278 180.23 196.091 180.396 195.894 180.551C201.216 187.526 206.538 194.491 211.86 201.466C207.762 193.579 203.477 185.826 196.465 180.074ZM161.162 383.095C162.292 378.752 161.691 374.606 161.276 370.347C156.815 373.352 156.753 378.679 161.162 383.095ZM170.778 391.355C170.083 388.981 169.482 386.639 168.714 384.349C167.957 382.079 167.967 379.55 166.566 377.094C165.944 380.607 165.405 383.623 164.875 386.556C166.836 388.152 168.776 389.727 170.778 391.355ZM212.845 149.977C213.022 149.822 213.198 149.666 213.374 149.511C211.393 146.868 209.546 144.122 207.399 141.624C206.123 140.142 204.453 138.929 202.803 137.831C201.932 137.24 200.853 136.494 199.525 137.136C199.784 138.94 201.102 139.862 202.295 140.764C206.029 143.583 210.127 145.946 212.845 149.977ZM191.516 338.882C191.07 341.545 191.558 342.292 193.757 342.115C194.991 342.012 196.236 341.587 197.377 341.069C198.685 340.467 199.867 339.576 201.133 338.882C202.606 338.073 203.208 336.809 203.55 334.84C201.257 336.208 199.359 337.379 197.419 338.488C195.624 339.514 193.747 340.053 191.516 338.882ZM196.371 414.777C198.726 414.922 199.224 414.601 199.805 412.673C199.93 412.248 199.971 411.782 200.064 411.347C200.355 410.041 200.676 408.735 200.967 407.419C201.102 406.828 201.195 406.237 201.299 405.657C198.851 405.139 197.979 405.615 197.512 407.854C197.066 410.062 196.776 412.311 196.371 414.777ZM280.225 190.687C278.119 193.599 276.2 196.232 274.146 199.072C276.885 199.693 278.71 198.771 280.069 196.874C281.345 195.081 281.999 193.174 280.225 190.687ZM196.392 252.239C196.205 252.083 196.018 251.938 195.832 251.783C190.033 253.939 187.491 258.83 185.323 264.334C189.109 260.188 192.751 256.208 196.392 252.239ZM185.063 441.319C185.209 441.288 185.344 441.268 185.478 441.236C186.329 439.651 187.211 438.075 188.041 436.469C188.891 434.821 189.815 433.184 189.493 431.132C188.715 431.349 188.093 431.474 187.501 431.702C185.146 432.593 184.773 433.267 185.032 435.754C185.136 436.739 185.063 437.744 185.063 438.739C185.063 439.599 185.063 440.459 185.063 441.319ZM3.11216 18.9351C2.43784 20.9975 3.83834 21.8578 4.95874 22.5521C7.26179 23.9824 9.04614 25.8375 10.5608 28.0451C11.121 28.8742 11.9924 29.496 12.9675 30.4495C13.1128 27.5579 12.8534 27.2885 11.2766 26.1484C10.0421 25.2675 8.9009 24.1793 7.96723 22.9978C6.64972 21.3292 5.05211 20.0959 3.11216 18.9351ZM199.847 341.276C196.9 343.235 194.245 343.805 191.236 343.235C191.184 344.209 191.143 344.965 191.101 345.681C196.641 347.37 198.021 346.199 199.847 341.276ZM190.541 323.087C185.717 323.014 181.609 321.532 177.024 321.584C179.752 324.693 186.319 325.471 190.541 323.087ZM30.4479 38.7511C32.3879 39.9636 34.0166 40.5648 35.3237 39.5284C36.9421 38.2536 37.9172 36.3984 37.6786 33.7245C35.1992 35.4553 33.0103 36.9684 30.4479 38.7511ZM225.097 239.522C226.051 233.49 224.039 227.003 220.522 225.531C221.456 227.956 222.379 230.06 223.084 232.226C223.831 234.537 224.381 236.9 225.097 239.522ZM249.445 168.747C251.769 165.171 251.707 161.647 249.31 158.6C248.408 162.01 247.536 165.119 249.445 168.747ZM300.631 227.583C300.392 227.531 300.154 227.479 299.915 227.427C299.023 231.252 298.11 235.076 297.29 238.911C297.207 239.294 297.654 239.792 298.089 240.735C300.154 236.206 300.963 232.008 300.631 227.583ZM267.527 192.304C270.733 189.557 272.361 185.65 271.469 182.81C268.658 185.391 267.994 188.635 267.527 192.304ZM1.76352 21.4328C1.02696 22.4278 0.87135 23.3709 1.64941 24.0342C3.7761 25.8583 6.04803 27.5061 8.83866 28.7913C8.15397 26.3868 7.46928 25.6924 1.76352 21.4328ZM104.706 73.1802C104.861 73.004 105.017 72.8382 105.173 72.662C103.834 71.2111 102.475 69.7912 101.158 68.3195C99.8921 66.91 98.6887 65.4487 97.4542 64.0081C97.3193 64.1325 97.1741 64.2568 97.0392 64.3812C98.7198 68.0915 100.369 71.8018 104.706 73.1802ZM124.51 73.0144C127.892 76.4552 134.313 80.3003 137.706 81.0258C133.878 77.2014 128.877 75.6365 124.51 73.0144ZM174.71 229.863C177.459 233.553 179.97 236.931 182.802 240.724C180.862 236.299 180.094 231.666 174.71 229.863ZM188.269 68.6512C186.391 68.817 184.638 68.9621 182.771 69.1279C183.144 70.8276 183.507 72.4547 183.964 74.4757C185.561 72.3096 186.9 70.5063 188.269 68.6512ZM296.129 236.434C298.048 233.853 299.106 229.334 298.411 227.22C296.409 229.904 295.465 233.428 296.129 236.434ZM194.037 415.161C192.771 414.135 191.558 413.088 190.271 412.145C189.628 411.668 188.788 411.627 188.456 412.487C188.29 412.922 188.487 413.751 188.829 414.083C189.721 414.953 190.728 415.772 191.796 416.404C193.062 417.14 193.809 416.549 194.037 415.161ZM233.967 39.4973C234.185 36.2015 234.714 32.8747 232.774 29.8588C232.255 33.196 232.795 36.3881 233.967 39.4973ZM196.34 347.712C194.317 347.608 192.73 347.536 191.122 347.453C190.946 350.158 192.989 349.971 194.597 350.52C195.178 349.588 195.687 348.759 196.34 347.712ZM55.4391 53.5716C56.4869 56.7637 59.2879 59.9454 62.0681 61.3135C59.8792 58.7639 57.8148 56.3595 55.4391 53.5716ZM157.23 379.146C155.518 380.939 155.518 380.939 156.721 382.991C157.302 382.659 157.883 382.328 158.547 381.954C158.101 381.011 157.728 380.213 157.23 379.146ZM269.343 199.009C270.515 200.782 271.324 202.005 272.372 203.59C272.299 199.984 272.299 199.984 269.343 199.009ZM17.1794 25.9515C19.0571 26.8843 20.4265 26.2521 22.4287 26.0034C20.4265 25.0602 19.0571 24.2104 17.1794 25.9515ZM294.977 230.309C297.135 228.557 297.363 227.573 295.973 226.329C295.651 227.614 295.361 228.754 294.977 230.309ZM197.377 324.144C197.232 324.424 197.087 324.704 196.942 324.973C198.322 325.605 199.691 326.238 201.071 326.87C201.174 326.663 201.278 326.445 201.382 326.238C200.044 325.543 198.716 324.839 197.377 324.144ZM173.693 402.579C173.911 401.491 174.368 400.496 172.936 400.34C172.532 400.299 171.743 400.682 171.702 400.962C171.504 402.237 172.594 402.258 173.693 402.579ZM219.308 88.1976C219.381 87.8764 219.454 87.5654 219.537 87.2442C218.427 86.9747 217.316 86.7052 216.217 86.4461C216.155 86.6638 216.092 86.8814 216.03 87.0991C217.109 87.4618 218.209 87.8245 219.308 88.1976ZM163.942 388.546C163.994 388.287 164.046 388.038 164.097 387.779C163.527 387.468 162.956 387.147 162.023 386.639C162.064 387.51 161.96 388.297 162.137 388.359C162.687 388.567 163.34 388.505 163.942 388.546ZM192.253 354.169C192.927 353.101 193.311 352.49 193.819 351.692C193.051 351.536 192.585 351.453 191.931 351.319C192.035 352.272 192.107 352.925 192.253 354.169ZM179.202 420.322C179.648 419.7 179.99 419.203 180.343 418.705C180.073 418.539 179.69 418.166 179.565 418.239C178.912 418.612 178.466 419.14 179.202 420.322ZM191.775 450.077C192.118 449.465 192.512 449.082 192.439 448.833C192.336 448.491 191.921 448.066 191.578 448.015C191.34 447.973 190.748 448.564 190.8 448.761C190.873 449.155 191.298 449.476 191.775 450.077ZM199.805 444.387C199.587 444.283 199.359 444.19 199.141 444.087C198.923 444.553 198.716 445.019 198.498 445.486C198.726 445.579 199.141 445.776 199.151 445.755C199.4 445.31 199.598 444.843 199.805 444.387Z" fill="#CCCCCC"/>
<path d="M213.094 64.4226C213.54 64.2361 213.986 63.8837 214.422 63.9044C217.856 64.0599 221.041 65.0548 223.831 67.0965C224.599 67.6562 225.595 68.3195 224.962 69.5114C224.506 70.3612 223.302 70.1954 222.265 68.9102C220.657 66.9307 218.478 66.1742 216.165 65.5834C215.159 65.3243 214.132 65.117 213.115 64.889C213.105 64.7336 213.094 64.5781 213.094 64.4226Z" fill="#CCCCCC"/>
<path d="M212.783 68.7961C215.138 69.8533 217.514 70.9104 220.086 72.0608C216.818 73.2941 213.022 71.4286 212.783 68.7961Z" fill="#CCCCCC"/>
<path d="M234.216 71.5945C233.645 72.5376 233.075 73.4911 232.514 74.4342C231.851 74.258 231.197 74.0922 230.533 73.916C229.651 73.6776 228.769 73.4185 227.369 73.0247C228.925 71.9572 230.087 72.1541 231.01 72.4132C232.348 72.7863 233.241 72.2267 234.216 71.5945Z" fill="#CCCCCC"/>
<path d="M198.902 427.307C198.819 428.302 197.844 429.048 196.807 428.924C195.79 428.8 195.105 427.898 195.23 426.81C195.344 425.784 195.935 425.162 196.973 425.12C197.906 425.069 198.985 426.343 198.902 427.307ZM197.222 428.033C197.46 427.504 197.72 427.193 197.668 426.965C197.606 426.706 197.263 426.52 197.035 426.302C196.859 426.561 196.547 426.82 196.537 427.09C196.527 427.318 196.859 427.566 197.222 428.033Z" fill="#CCCCCC"/>
<path d="M203 418.892C203.249 419.213 203.903 419.71 204.027 420.322C204.255 421.41 203.394 422.281 202.347 422.27C201.392 422.26 200.832 421.731 200.707 420.809C200.573 419.793 201.413 418.933 203 418.892Z" fill="#CCCCCC"/>
<path d="M193.166 437.785C194.338 438.676 194.628 439.796 193.83 440.894C193.508 441.33 192.398 441.609 191.91 441.381C191.298 441.102 190.551 440.21 190.582 439.63C190.665 438.148 191.973 437.941 193.166 437.785ZM192.346 440.687C192.709 440.148 192.948 439.92 192.989 439.661C193.02 439.464 192.792 439.236 192.678 439.018C192.429 439.195 192.056 439.319 191.962 439.557C191.879 439.744 192.118 440.065 192.346 440.687Z" fill="#CCCCCC"/>
<path d="M209.899 425.525C210.055 425.815 210.49 426.281 210.501 426.768C210.542 427.908 209.37 429.028 208.457 428.706C207.99 428.541 207.471 427.908 207.378 427.411C207.202 426.426 208.426 425.431 209.899 425.525Z" fill="#CCCCCC"/>
<path d="M210.926 418.912C211.102 419.192 211.642 419.69 211.694 420.229C211.818 421.421 210.791 422.395 209.733 422.26C208.747 422.136 208.384 421.462 208.415 420.55C208.457 419.524 209.328 418.83 210.926 418.912ZM210.158 421.379C210.459 420.892 210.677 420.571 210.822 420.229C210.843 420.187 210.366 419.835 210.314 419.876C210.055 420.063 209.816 420.322 209.681 420.612C209.64 420.716 209.899 420.975 210.158 421.379Z" fill="#CCCCCC"/>
</g>
<defs>
<clipPath id="clip0_943_576">
<rect width="330" height="457" fill="white"/>
</clipPath>
</defs>
</svg>
