<svg width="205" height="502" viewBox="0 0 205 502" fill="none" xmlns="http://www.w3.org/2000/svg">
<g clip-path="url(#clip0_669_664)">
<path d="M499.926 251C499.926 281.1 494.578 309.973 484.788 336.683C465.135 390.279 427.568 435.254 379.35 464.316C341.871 486.921 297.962 499.91 251.015 499.91C240.042 499.91 229.229 499.209 218.635 497.821C199.538 495.352 181.113 490.69 163.637 484.144C115.272 466.011 74.0379 433.252 45.3552 391.243C18.0751 351.309 2.10449 303.018 2.10449 251C2.10449 245.74 2.26522 240.523 2.58668 235.351C6.45878 172.915 33.3589 116.704 74.8854 75.1187C75.6306 74.3735 76.3904 73.6283 77.1356 72.8831C77.1502 72.8685 77.1795 72.8539 77.1941 72.8247C122.037 29.048 183.377 2.08936 251 2.08936C388.482 2.08936 499.926 113.533 499.926 251Z" stroke="#E6E6E6" stroke-width="2.8549" stroke-miterlimit="10"/>
<path d="M165.668 268.87C172.185 265.67 277.638 281.275 279.83 285.644C282.021 290.028 299.892 387.4 296.239 392.69C292.586 397.979 204.696 438.103 193.752 436.642C182.808 435.18 119.904 362.239 118.984 354.582C118.063 346.926 156.726 273.254 165.668 268.87Z" fill="#E6E6E6"/>
<path d="M208.89 80.0428C207.341 87.0126 144.058 157.733 134.487 160.466C124.916 163.198 59.8065 160.466 56.5335 155.542C53.2458 150.617 69.684 83.3451 74.8712 75.1333C80.0583 66.9215 161.299 27.5283 168.956 29.4425C176.613 31.3566 210.526 72.6493 208.89 80.0428Z" fill="#E6E6E6"/>
<path d="M45.3405 391.258C18.0604 351.324 2.08984 303.032 2.08984 251.014C2.08984 245.754 2.25057 240.538 2.57203 235.365C5.58204 236.929 8.22676 238.755 9.20575 240.611C11.9381 245.813 42.3159 328.413 43.6748 337.457C44.5223 343.068 45.0629 371.064 45.3405 391.258Z" fill="#E6E6E6"/>
<path d="M218.621 497.836C199.523 495.366 181.098 490.705 163.622 484.159C175.399 481.543 189.426 478.709 192.1 479.322C195.213 480.024 209.298 490.617 218.621 497.836Z" fill="#E6E6E6"/>
<path d="M40.5039 333.162C44.1861 338.261 49.4609 342.075 55.1741 344.734C60.8726 347.393 67.0242 348.971 73.1903 350.243C89.7746 353.662 106.812 354.933 123.732 353.998" stroke="#E6E6E6" stroke-width="2.8549" stroke-miterlimit="10"/>
<path d="M194.803 431.703C190.332 448.434 189.85 466.216 193.415 483.166" stroke="#E6E6E6" stroke-width="2.8549" stroke-miterlimit="10"/>
<path d="M133.932 151.144C131.272 195.227 145.446 239.077 170.052 275.752" stroke="#E6E6E6" stroke-width="2.8549" stroke-miterlimit="10"/>
<path d="M58.5349 154.504C43.514 169.715 28.2156 185.32 19.1125 204.651C13.0778 217.466 9.99477 231.449 7.52539 245.403" stroke="#E6E6E6" stroke-width="2.8549" stroke-miterlimit="10"/>
<path d="M203.936 79.3413C246.324 83.2134 288.143 93.427 327.536 109.544" stroke="#E6E6E6" stroke-width="2.8549" stroke-miterlimit="10"/>
<path d="M163.754 33.5484C181.01 18.9075 201.847 8.48936 223.91 3.47754" stroke="#E6E6E6" stroke-width="2.8549" stroke-miterlimit="10"/>
</g>
<defs>
<clipPath id="clip0_669_664">
<rect width="502" height="502" fill="white"/>
</clipPath>
</defs>
</svg>
