<svg width="1829" height="1830" viewBox="0 0 1829 1830" fill="none" xmlns="http://www.w3.org/2000/svg">
<mask id="mask0_929_709" style="mask-type:luminance" maskUnits="userSpaceOnUse" x="0" y="0" width="1829" height="1830">
<path d="M1393.21 1724C1008.53 1948.68 539.319 1784.53 282.519 1526.46C-53.9205 1188.36 -81.7605 632.789 155.829 303.429C254.609 166.489 460.859 -23.2411 681.049 2.33885C867.689 24.0089 892.579 179.999 1203.33 424.409C1555.67 701.539 1707.94 645.939 1790.16 820.779C1912.69 1081.32 1727.05 1529.01 1393.21 1724Z" fill="white"/>
</mask>
<g mask="url(#mask0_929_709)">
<path d="M1908.09 1814.91L728.57 266.829C725.17 262.359 717.61 258.729 711.7 258.719L-0.000488281 257.649V273.809L713.32 274.879L1880.51 1806.78L414.79 1804.58L-0.000488281 1260.18V1288.25L399.549 1812.64C402.949 1817.11 410.51 1820.74 416.42 1820.75L1903.55 1822.98C1909.47 1823 1911.5 1819.38 1908.09 1814.91Z" fill="#F2F2F2"/>
<path d="M1312.38 1040.86C1308.98 1036.39 1301.42 1032.76 1295.51 1032.75L-0.000488281 1030.81V1046.97L1307.84 1048.93C1313.76 1048.95 1315.79 1045.33 1312.38 1040.86Z" fill="#F2F2F2"/>
<path d="M260.679 1039.28C164.369 912.869 222.109 810.239 389.389 810.489C556.669 810.739 771.119 913.779 867.429 1040.19C963.739 1166.6 905.999 1269.23 738.719 1268.98C571.449 1268.73 356.999 1165.69 260.679 1039.28ZM846.019 1040.16C756.509 922.679 557.189 826.909 401.719 826.669C246.249 826.439 192.579 921.829 282.099 1039.31C371.609 1156.79 570.929 1252.56 726.399 1252.8C881.869 1253.04 935.529 1157.65 846.019 1040.16Z" fill="#F2F2F2"/>
<path d="M743.369 1813.17L539.249 1545.27C535.849 1540.8 537.879 1537.19 543.789 1537.2L1343.27 1538.4C1349.18 1538.41 1356.74 1542.04 1360.14 1546.51L1557.41 1805.42C1560.81 1809.89 1558.78 1813.5 1552.87 1813.49C1546.96 1813.48 1539.4 1809.85 1536 1805.38L1344.89 1554.56L566.819 1553.39L764.779 1813.2C768.179 1817.67 766.149 1821.28 760.239 1821.27C754.329 1821.26 746.779 1817.63 743.369 1813.17Z" fill="#F2F2F2"/>
<path d="M942.34 1804.48L872.47 1712.78C869.07 1708.31 871.1 1704.7 877.01 1704.71L1264.85 1705.29C1270.76 1705.3 1278.32 1708.93 1281.72 1713.4L1358.44 1814.09C1361.84 1818.56 1359.81 1822.17 1353.9 1822.16C1347.99 1822.15 1340.43 1818.52 1337.03 1814.05L1266.48 1721.45L900.05 1720.9L963.75 1804.51C967.15 1808.98 965.12 1812.59 959.21 1812.59C953.3 1812.58 945.75 1808.95 942.34 1804.48Z" fill="#F2F2F2"/>
<path d="M699.33 1542.29C698.79 1541.58 698.37 1540.86 698.08 1540.15C664.53 1456.23 721.64 1397.75 836.96 1397.92C952.28 1398.09 1098.75 1456.89 1193.14 1540.89C1197.99 1545.2 1198.02 1549.65 1193.21 1550.82C1188.4 1551.99 1180.58 1549.45 1175.74 1545.13C1089.23 1468.14 954.98 1414.25 849.28 1414.1C743.58 1413.95 691.229 1467.54 721.979 1544.45C723.699 1548.76 719.75 1551.29 713.14 1550.1C707.65 1549.11 702.04 1545.84 699.33 1542.29Z" fill="#F2F2F2"/>
<path d="M588.87 534.219L391.6 275.299C388.2 270.829 380.64 267.199 374.73 267.189C368.82 267.179 366.78 270.799 370.19 275.259L561.299 526.079L-0.000488281 525.249V541.409L584.32 542.289C590.24 542.299 592.27 538.679 588.87 534.219Z" fill="#F2F2F2"/>
<path d="M255.64 366.689L178.93 265.999C175.53 261.529 167.97 257.899 162.06 257.889C156.15 257.879 154.11 261.499 157.52 265.969L228.07 358.569L-0.000488281 358.229V374.389L251.1 374.769C257.02 374.779 259.05 371.159 255.64 366.689Z" fill="#F2F2F2"/>
<path d="M430.03 539.329C428.3 535.019 421.56 530.569 414.96 529.379C408.36 528.189 404.4 530.719 406.12 535.029C436.87 611.939 384.52 665.539 278.82 665.379C191 665.249 83.4895 627.999 -0.000488281 571.249V587.479C89.0495 644.529 199.85 681.429 291.15 681.569C406.47 681.729 463.58 623.249 430.03 539.329Z" fill="#F2F2F2"/>
<path d="M598.95 1055.61C603.268 1046.13 591.177 1031.34 571.944 1022.59C552.711 1013.83 533.619 1014.42 529.302 1023.91C524.984 1033.4 537.075 1048.18 556.308 1056.94C575.541 1065.69 594.633 1065.1 598.95 1055.61Z" fill="#F2F2F2"/>
</g>
<path d="M830.409 265.959C830.109 265.959 829.819 265.899 829.529 265.769C697.859 208.069 552.769 186.179 409.929 202.459C408.719 202.599 407.629 201.729 407.489 200.519C407.349 199.309 408.219 198.219 409.429 198.079C553.039 181.709 698.909 203.729 831.289 261.729C832.399 262.219 832.909 263.519 832.419 264.629C832.069 265.459 831.259 265.959 830.409 265.959Z" fill="#F2F2F2"/>
<path d="M951.36 117.699C951.11 117.699 950.87 117.659 950.62 117.569C836.97 77.2889 699.79 86.4389 604.72 101.209C603.52 101.399 602.39 100.569 602.21 99.3689C602.02 98.1689 602.85 97.0389 604.05 96.8589C699.62 82.0089 837.58 72.8389 952.09 113.419C953.24 113.829 953.84 115.079 953.43 116.229C953.12 117.129 952.27 117.699 951.36 117.699Z" fill="#F2F2F2"/>
<path d="M442.72 137.839C441.79 137.839 440.93 137.249 440.63 136.319C440.25 135.159 440.89 133.919 442.04 133.539C442.22 133.479 460.9 127.429 491.6 119.699C492.78 119.399 493.98 120.119 494.27 121.299C494.57 122.479 493.85 123.679 492.67 123.969C462.11 131.669 443.58 137.669 443.4 137.729C443.17 137.809 442.94 137.839 442.72 137.839Z" fill="#F2F2F2"/>
<path d="M1579.55 1125.34C1579.11 1125.34 1578.66 1125.21 1578.28 1124.93L1566.05 1116.24C1565.06 1115.54 1564.83 1114.16 1565.53 1113.17C1566.23 1112.18 1567.61 1111.95 1568.6 1112.65L1580.83 1121.34C1581.82 1122.04 1582.05 1123.42 1581.35 1124.41C1580.92 1125.02 1580.24 1125.34 1579.55 1125.34Z" fill="#F2F2F2"/>
<path d="M1536.76 1094.94C1536.32 1094.94 1535.87 1094.81 1535.49 1094.53L1523.26 1085.84C1522.27 1085.14 1522.04 1083.76 1522.74 1082.77C1523.45 1081.78 1524.82 1081.55 1525.81 1082.25L1538.04 1090.94C1539.03 1091.65 1539.26 1093.02 1538.56 1094.01C1538.13 1094.61 1537.45 1094.94 1536.76 1094.94Z" fill="#F2F2F2"/>
<path d="M1562.97 1090.9C1562.52 1090.9 1562.06 1090.76 1561.67 1090.47C1560.69 1089.75 1560.48 1088.37 1561.19 1087.39L1569.93 1075.47C1570.65 1074.49 1572.03 1074.28 1573.01 1075C1573.99 1075.72 1574.2 1077.1 1573.49 1078.08L1564.75 1090C1564.32 1090.59 1563.65 1090.9 1562.97 1090.9Z" fill="#F2F2F2"/>
<path d="M1532.39 1132.61C1531.94 1132.61 1531.48 1132.47 1531.09 1132.18C1530.11 1131.46 1529.9 1130.08 1530.61 1129.1L1539.35 1117.18C1540.07 1116.2 1541.45 1115.99 1542.43 1116.71C1543.41 1117.43 1543.62 1118.81 1542.91 1119.79L1534.17 1131.71C1533.73 1132.3 1533.07 1132.61 1532.39 1132.61Z" fill="#F2F2F2"/>
<path d="M214.28 1565.44C199.69 1565.44 187.81 1553.57 187.81 1538.97C187.81 1537.75 188.8 1536.77 190.01 1536.77C191.23 1536.77 192.21 1537.76 192.21 1538.97C192.21 1551.13 202.11 1561.03 214.27 1561.03C226.44 1561.03 236.33 1551.13 236.33 1538.97C236.33 1526.81 226.43 1516.91 214.27 1516.91C213.05 1516.91 212.07 1515.92 212.07 1514.71C212.07 1513.5 213.06 1512.51 214.27 1512.51C228.86 1512.51 240.74 1524.38 240.74 1538.98C240.74 1553.57 228.87 1565.44 214.28 1565.44Z" fill="#F2F2F2"/>
<path d="M311.24 262.799C290.15 262.799 273 245.639 273 224.559C273 203.469 290.16 186.319 311.24 186.319C332.32 186.319 349.48 203.479 349.48 224.559C349.48 245.649 332.33 262.799 311.24 262.799ZM311.24 190.719C292.58 190.719 277.4 205.899 277.4 224.559C277.4 243.219 292.58 258.399 311.24 258.399C329.9 258.399 345.079 243.219 345.079 224.559C345.079 205.899 329.9 190.719 311.24 190.719Z" fill="#F2F2F2"/>
</svg>
